<?xml version="1.0" standalone="no"?>
<!DOCTYPE svg PUBLIC "-//W3C//DTD SVG 20010904//EN"
 "http://www.w3.org/TR/2001/REC-SVG-20010904/DTD/svg10.dtd">
<svg version="1.0" xmlns="http://www.w3.org/2000/svg"
 width="50.000000pt" height="50.000000pt" viewBox="0 0 50.000000 50.000000"
 preserveAspectRatio="xMidYMid meet">

<g transform="translate(0.000000,50.000000) scale(0.100000,-0.100000)"
fill="#000000" stroke="none">
<path d="M4 489 c-10 -16 7 -27 46 -31 l35 -3 20 -136 c11 -75 26 -144 34
-153 11 -13 36 -16 150 -16 94 0 142 4 154 13 10 7 25 51 38 115 19 88 20 105
8 113 -8 5 -92 9 -186 9 l-173 0 0 30 c0 43 -31 70 -79 70 -22 0 -43 -5 -47
-11z m446 -151 c0 -12 -9 -52 -25 -126 -5 -22 -7 -23 -133 -20 l-126 3 -7 40
c-3 22 -9 57 -12 78 l-6 37 155 0 c117 0 154 -3 154 -12z"/>
<path d="M134 112 c-6 -4 -17 -18 -24 -31 -10 -20 -9 -27 7 -50 26 -33 65 -39
92 -12 25 25 27 49 5 79 -15 22 -57 30 -80 14z m51 -52 c0 -8 -8 -16 -17 -18
-13 -2 -18 3 -18 18 0 15 5 20 18 18 9 -2 17 -10 17 -18z"/>
<path d="M384 112 c-6 -4 -17 -18 -24 -31 -10 -20 -9 -27 7 -50 26 -33 65 -39
92 -12 25 25 27 49 5 79 -15 22 -57 30 -80 14z m51 -52 c0 -8 -8 -16 -17 -18
-13 -2 -18 3 -18 18 0 15 5 20 18 18 9 -2 17 -10 17 -18z"/>
</g>
</svg>
