<?xml version="1.0" standalone="no"?>
<!DOCTYPE svg PUBLIC "-//W3C//DTD SVG 20010904//EN"
 "http://www.w3.org/TR/2001/REC-SVG-20010904/DTD/svg10.dtd">
<svg version="1.0" xmlns="http://www.w3.org/2000/svg"
 width="300.000000pt" height="225.000000pt" viewBox="0 0 300.000000 225.000000"
 preserveAspectRatio="xMidYMid meet">
<metadata>
Created by potrace 1.16, written by Peter Selinger 2001-2019
</metadata>
<g transform="translate(0.000000,225.000000) scale(0.100000,-0.100000)"
fill="#000000" stroke="none">
<path d="M199 2167 c-54 -29 -95 -91 -111 -170 -14 -65 -8 -82 35 -107 24 -13
30 -13 54 0 30 17 37 29 52 87 23 86 74 98 103 23 15 -41 17 -114 17 -851 1
-779 2 -808 20 -830 17 -22 28 -24 120 -27 l101 -4 -25 -30 c-37 -44 -34 -91
9 -134 26 -26 42 -34 71 -34 29 0 45 8 71 34 43 43 46 90 8 135 l-26 31 80 0
c157 0 1301 19 1471 25 l173 6 -26 -31 c-38 -46 -35 -93 8 -136 47 -47 95 -47
142 0 43 43 46 90 9 134 l-25 30 131 4 c123 3 132 4 150 27 24 30 24 62 0 92
-22 28 90 26 -946 9 -314 -5 -751 -12 -971 -16 l-402 -6 2 768 1 769 -23 68
c-13 37 -36 82 -50 99 -52 61 -145 76 -223 35z"/>
<path d="M800 1677 c-101 -29 -183 -107 -224 -215 l-26 -67 0 -438 c0 -367 2
-441 14 -453 20 -20 338 -21 354 -1 8 9 12 140 14 400 3 385 6 422 37 403 8
-5 11 -128 11 -400 0 -291 3 -395 12 -404 17 -17 339 -17 356 0 9 9 12 110 12
393 0 314 3 385 14 401 30 41 36 -24 36 -406 0 -203 3 -375 6 -384 5 -14 30
-16 176 -16 151 0 172 2 184 18 17 21 20 742 4 869 -27 217 -156 326 -365 310
-85 -6 -142 -31 -202 -90 l-42 -40 -51 47 c-28 26 -67 54 -88 63 -49 21 -176
26 -232 10z"/>
<path d="M1833 1659 c-18 -19 -19 -1139 -1 -1157 8 -8 62 -12 178 -12 160 0
166 1 179 22 l14 22 8 -22 c8 -20 15 -22 93 -22 333 0 587 206 627 508 44 327
-131 577 -451 647 -103 22 -629 34 -647 14z m622 -397 c53 -31 74 -61 87 -126
25 -119 -33 -229 -135 -254 -25 -7 -73 -12 -106 -12 -48 0 -65 -4 -81 -20 -20
-20 -20 -20 -20 211 l0 231 108 -4 c89 -3 114 -7 147 -26z"/>
</g>
</svg>
